<svg width="32" height="33" viewBox="0 0 32 33" fill="none" xmlns="http://www.w3.org/2000/svg">
<g id="Icon/Common Actions/Star">
<path id="Icon" d="M17.1956 2.86914C16.9709 2.41407 16.5075 2.12598 16 2.12598C15.4925 2.12598 15.029 2.41407 14.8043 2.86914L10.9943 10.5879L2.47379 11.8333C1.97171 11.9067 1.5548 12.2587 1.3983 12.7414C1.24179 13.2241 1.37282 13.7537 1.73631 14.1078L7.9006 20.1118L6.44581 28.5939C6.36001 29.0942 6.56567 29.5997 6.97631 29.898C7.38695 30.1964 7.93134 30.2356 8.38056 29.9994L16 25.9924L23.6194 29.9994C24.0686 30.2356 24.613 30.1964 25.0236 29.898C25.4342 29.5997 25.6399 29.0942 25.5541 28.5939L24.0993 20.1118L30.2636 14.1078C30.6271 13.7537 30.7581 13.2241 30.6016 12.7414C30.4451 12.2587 30.0282 11.9067 29.5261 11.8333L21.0056 10.5879L17.1956 2.86914Z" fill="#034AD8"/>
</g>
</svg>
