<svg width="32" height="33" viewBox="0 0 32 33" fill="none" xmlns="http://www.w3.org/2000/svg">
<g id="Icon/Common Actions/Star">
<path id="Icon" fill-rule="evenodd" clip-rule="evenodd" d="M16 2.12598C16.5075 2.12598 16.9709 2.41407 17.1956 2.86914L21.0056 10.5879L29.5261 11.8333C30.0282 11.9067 30.4451 12.2587 30.6016 12.7414C30.7581 13.2241 30.6271 13.7537 30.2636 14.1078L24.0993 20.1118L25.5541 28.5939C25.6399 29.0942 25.4342 29.5997 25.0236 29.898C24.613 30.1964 24.0686 30.2356 23.6194 29.9994L16 25.9924L8.38056 29.9994C7.93134 30.2356 7.38695 30.1964 6.97631 29.898C6.56567 29.5997 6.36001 29.0942 6.44581 28.5939L7.9006 20.1118L1.73631 14.1078C1.37282 13.7537 1.24179 13.2241 1.3983 12.7414C1.5548 12.2587 1.97171 11.9067 2.47379 11.8333L10.9943 10.5879L14.8043 2.86914C15.029 2.41407 15.4925 2.12598 16 2.12598ZM16 6.47165L13.0756 12.3961C12.8815 12.7893 12.5066 13.0619 12.0728 13.1253L5.53117 14.0814L10.2636 18.6908C10.5781 18.9972 10.7217 19.4387 10.6474 19.8714L9.53086 26.3815L15.3794 23.3059C15.7679 23.1016 16.232 23.1016 16.6206 23.3059L22.4691 26.3815L21.3525 19.8714C21.2783 19.4387 21.4218 18.9972 21.7363 18.6908L26.4687 14.0814L19.9271 13.1253C19.4933 13.0619 19.1184 12.7893 18.9243 12.3961L16 6.47165Z" fill="#034AD8"/>
</g>
</svg>
